<svg width="1645" height="423" viewBox="0 0 1645 423" fill="none" xmlns="http://www.w3.org/2000/svg">
<rect width="1645" height="423" fill="white"/>
<path d="M122.23 124.242H265.297V162.816H214.271V301H173.256V162.816H122.23V124.242ZM341.664 124.242H382.68V188.939H456.166V124.242H497.182V301H456.166V227.514H382.68V301H341.664V124.242ZM577.699 124.242H693.178V162.816H618.715V193.822H686.342V228.49H618.715V262.426H695.131V301H577.699V124.242ZM829.604 304.418C817.396 304.418 805.393 302.18 793.593 297.704C781.874 293.147 771.417 286.677 762.221 278.295L787.123 248.021C799.818 259.74 813.816 265.6 829.115 265.6C837.335 265.6 843.723 264.094 848.28 261.083C852.838 258.072 855.076 253.881 854.994 248.51C855.076 245.58 854.302 243.098 852.675 241.063C851.129 238.948 848.484 237.035 844.74 235.326C840.997 233.617 835.788 231.908 829.115 230.199L821.059 228.002C803.806 223.526 790.704 216.894 781.752 208.104C772.882 199.234 768.487 188.451 768.568 175.756C768.568 165.421 771.376 156.062 776.991 147.68C782.688 139.298 790.541 132.746 800.551 128.026C810.561 123.225 821.791 120.824 834.242 120.824C845.391 120.824 856.256 122.899 866.835 127.05C877.496 131.2 887.221 137.1 896.01 144.75L871.596 175.268C865.574 169.896 859.429 165.95 853.163 163.427C846.978 160.904 840.508 159.643 833.754 159.643C829.197 159.643 825.046 160.334 821.303 161.718C817.641 163.02 814.752 164.892 812.636 167.333C810.601 169.774 809.584 172.501 809.584 175.512C809.665 179.011 811.293 181.9 814.467 184.179C817.722 186.457 823.256 188.614 831.068 190.648L839.369 192.846C858.819 197.891 873.142 204.849 882.338 213.72C891.615 222.59 896.254 233.861 896.254 247.533C896.254 258.52 893.406 268.326 887.709 276.952C882.094 285.578 874.241 292.333 864.149 297.216C854.058 302.017 842.543 304.418 829.604 304.418ZM970.912 124.242H1086.39V162.816H1011.93V193.822H1079.55V228.49H1011.93V262.426H1088.34V301H970.912V124.242ZM1240.15 304.418C1225.18 304.418 1211.99 301.041 1200.6 294.286C1189.29 287.45 1180.46 277.847 1174.11 265.478C1167.84 253.108 1164.71 238.826 1164.71 222.631V124.242H1205.73V222.631C1205.81 236.303 1208.86 246.923 1214.88 254.491C1220.9 261.978 1229.33 265.681 1240.15 265.6C1250.97 265.681 1259.4 261.978 1265.42 254.491C1271.44 246.923 1274.49 236.303 1274.57 222.631V124.242H1315.59V222.631C1315.59 238.826 1312.42 253.108 1306.07 265.478C1299.8 277.847 1290.97 287.45 1279.58 294.286C1268.27 301.041 1255.12 304.418 1240.15 304.418ZM1455.92 304.418C1443.71 304.418 1431.71 302.18 1419.91 297.704C1408.19 293.147 1397.74 286.677 1388.54 278.295L1413.44 248.021C1426.14 259.74 1440.13 265.6 1455.43 265.6C1463.65 265.6 1470.04 264.094 1474.6 261.083C1479.16 258.072 1481.39 253.881 1481.31 248.51C1481.39 245.58 1480.62 243.098 1478.99 241.063C1477.45 238.948 1474.8 237.035 1471.06 235.326C1467.32 233.617 1462.11 231.908 1455.43 230.199L1447.38 228.002C1430.12 223.526 1417.02 216.894 1408.07 208.104C1399.2 199.234 1394.81 188.451 1394.89 175.756C1394.89 165.421 1397.69 156.062 1403.31 147.68C1409.01 139.298 1416.86 132.746 1426.87 128.026C1436.88 123.225 1448.11 120.824 1460.56 120.824C1471.71 120.824 1482.57 122.899 1493.15 127.05C1503.81 131.2 1513.54 137.1 1522.33 144.75L1497.91 175.268C1491.89 169.896 1485.75 165.95 1479.48 163.427C1473.3 160.904 1466.83 159.643 1460.07 159.643C1455.51 159.643 1451.36 160.334 1447.62 161.718C1443.96 163.02 1441.07 164.892 1438.95 167.333C1436.92 169.774 1435.9 172.501 1435.9 175.512C1435.98 179.011 1437.61 181.9 1440.79 184.179C1444.04 186.457 1449.57 188.614 1457.39 190.648L1465.69 192.846C1485.14 197.891 1499.46 204.849 1508.66 213.72C1517.93 222.59 1522.57 233.861 1522.57 247.533C1522.57 258.52 1519.72 268.326 1514.03 276.952C1508.41 285.578 1500.56 292.333 1490.47 297.216C1480.38 302.017 1468.86 304.418 1455.92 304.418Z" fill="#0F3754"/>
</svg>
